<?xml version="1.0" encoding="UTF-8" standalone="no"?>
<svg
   width="16"
   height="16"
   fill="currentColor"
   class="bi bi-calendar-heart"
   viewBox="-8 -8 32 32"
   version="1.1"
   id="svg421"
   xmlns="http://www.w3.org/2000/svg"
   xmlns:svg="http://www.w3.org/2000/svg">
  <defs
     id="defs425" />
  <path
     fill-rule="evenodd"
     d="m 4,0.5 a 0.5,0.5 0 0 0 -1,0 V 1 H 2 A 2,2 0 0 0 0,3 v 11 a 2,2 0 0 0 2,2 h 12 a 2,2 0 0 0 2,-2 V 3 A 2,2 0 0 0 14,1 H 13 V 0.5 a 0.5,0.5 0 0 0 -1,0 V 1 H 4 Z M 1,14 V 4 h 14 v 10 a 1,1 0 0 1 -1,1 H 2 A 1,1 0 0 1 1,14 Z M 8,7.493 C 9.664,5.782 13.825,8.776 8,12.625 2.175,8.775 6.336,5.782 8,7.493 Z"
     id="path419" />
</svg>
