<?xml version="1.0" encoding="UTF-8" standalone="no"?>
<svg
   width="16"
   height="16"
   fill="currentColor"
   class="bi bi-cup-hot"
   viewBox="-8 -8 32 32"
   version="1.1"
   id="svg368"
   xmlns="http://www.w3.org/2000/svg"
   xmlns:svg="http://www.w3.org/2000/svg">
  <defs
     id="defs372" />
  <path
     fill-rule="evenodd"
     d="M 0.5,6 A 0.5,0.5 0 0 0 0.012,6.608 l 1.652,7.434 A 2.5,2.5 0 0 0 4.104,16 h 5.792 a 2.5,2.5 0 0 0 2.44,-1.958 l 0.131,-0.59 a 3,3 0 0 0 1.3,-5.854 l 0.221,-0.99 A 0.5,0.5 0 0 0 13.5,6 Z M 13,12.5 A 2.01,2.01 0 0 1 12.684,12.475 L 13.551,8.577 A 2.001,2.001 0 0 1 13,12.5 Z M 2.64,13.825 1.123,7 H 12.877 L 11.36,13.825 A 1.5,1.5 0 0 1 9.896,15 H 4.104 A 1.5,1.5 0 0 1 2.64,13.825 Z"
     id="path364" />
  <path
     d="M 4.4,0.8 4.397,0.804 4.383,0.823 A 4.167,4.167 0 0 0 4.179,1.133 2.327,2.327 0 0 0 4.038,1.4 C 4.012,1.46 4.004,1.492 4.001,1.503 V 1.507 A 0.593,0.593 0 0 0 4.092,1.755 C 4.167,1.888 4.27,2.027 4.4,2.2 L 4.41,2.212 C 4.528,2.37 4.67,2.559 4.78,2.755 4.892,2.955 5,3.21 5,3.5 5,3.688 4.935,3.868 4.881,3.994 A 3.31,3.31 0 0 1 4.679,4.382 5.444,5.444 0 0 1 4.426,4.764 L 4.408,4.789 4.403,4.797 4.401,4.799 A 0.50010049,0.50010049 0 0 1 3.6,4.2 L 3.603,4.196 3.617,4.177 A 4.149,4.149 0 0 0 3.821,3.867 2.06,2.06 0 0 0 3.962,3.6 C 3.988,3.54 3.996,3.508 3.999,3.497 A 0.593,0.593 0 0 0 3.909,3.245 4.334,4.334 0 0 0 3.6,2.8 L 3.59,2.788 A 5.099,5.099 0 0 1 3.22,2.245 1.53,1.53 0 0 1 3,1.5 C 3,1.312 3.065,1.132 3.119,1.006 3.178,0.868 3.253,0.732 3.321,0.618 A 5.446,5.446 0 0 1 3.574,0.236 L 3.599,0.201 A 0.50010049,0.50010049 0 0 1 4.4,0.8 Z m 3,0 L 7.397,0.804 7.383,0.823 A 4.167,4.167 0 0 0 7.179,1.133 2.327,2.327 0 0 0 7.038,1.4 C 7.012,1.46 7.004,1.492 7.001,1.503 V 1.507 A 0.593,0.593 0 0 0 7.092,1.755 C 7.167,1.888 7.27,2.027 7.4,2.2 L 7.41,2.212 C 7.528,2.37 7.67,2.559 7.78,2.755 7.892,2.955 8,3.21 8,3.5 8,3.688 7.935,3.868 7.881,3.994 A 3.31,3.31 0 0 1 7.679,4.382 5.444,5.444 0 0 1 7.426,4.764 L 7.408,4.789 7.403,4.797 7.401,4.799 A 0.50010049,0.50010049 0 0 1 6.6,4.2 L 6.603,4.196 6.617,4.177 A 4.149,4.149 0 0 0 6.821,3.867 2.06,2.06 0 0 0 6.962,3.6 C 6.988,3.54 6.996,3.508 6.999,3.497 A 0.593,0.593 0 0 0 6.909,3.245 4.334,4.334 0 0 0 6.6,2.8 L 6.59,2.788 A 5.099,5.099 0 0 1 6.22,2.245 1.53,1.53 0 0 1 6,1.5 C 6,1.312 6.065,1.132 6.119,1.006 6.178,0.868 6.253,0.732 6.321,0.618 A 5.446,5.446 0 0 1 6.574,0.236 L 6.599,0.201 A 0.50010049,0.50010049 0 0 1 7.4,0.8 Z m 3,0 -0.003,0.004 -0.014,0.019 A 4.077,4.077 0 0 0 10.179,1.133 2.337,2.337 0 0 0 10.038,1.4 c -0.026,0.06 -0.034,0.092 -0.037,0.103 v 0.004 a 0.593,0.593 0 0 0 0.091,0.248 C 10.167,1.888 10.27,2.027 10.4,2.2 l 0.01,0.012 C 10.528,2.37 10.67,2.559 10.78,2.755 10.892,2.955 11,3.21 11,3.5 11,3.688 10.935,3.868 10.881,3.994 A 3.198,3.198 0 0 1 10.679,4.382 5.385,5.385 0 0 1 10.427,4.764 L 10.408,4.789 10.403,4.797 10.401,4.799 A 0.50010049,0.50010049 0 0 1 9.6,4.2 L 9.603,4.196 9.617,4.177 A 4.149,4.149 0 0 0 9.821,3.867 2.06,2.06 0 0 0 9.962,3.6 C 9.988,3.54 9.996,3.508 9.999,3.497 A 0.593,0.593 0 0 0 9.909,3.245 4.334,4.334 0 0 0 9.6,2.8 L 9.59,2.788 A 5.099,5.099 0 0 1 9.22,2.245 1.53,1.53 0 0 1 9,1.5 C 9,1.312 9.065,1.132 9.119,1.006 9.178,0.868 9.253,0.732 9.321,0.618 A 5.446,5.446 0 0 1 9.574,0.236 L 9.599,0.201 A 0.50010049,0.50010049 0 0 1 10.4,0.8 Z"
     id="path366" />
</svg>
