<?xml version="1.0" encoding="UTF-8" standalone="no"?>
<svg
   width="16"
   height="16"
   fill="currentColor"
   class="bi bi-list-check"
   viewBox="-8 -8 32 32"
   version="1.1"
   id="svg300"
   xmlns="http://www.w3.org/2000/svg"
   xmlns:svg="http://www.w3.org/2000/svg">
  <defs
     id="defs304" />
  <path
     fill-rule="evenodd"
     d="M 5,11.5 A 0.5,0.5 0 0 1 5.5,11 h 9 a 0.5,0.5 0 0 1 0,1 h -9 A 0.5,0.5 0 0 1 5,11.5 Z m 0,-4 A 0.5,0.5 0 0 1 5.5,7 h 9 a 0.5,0.5 0 0 1 0,1 h -9 A 0.5,0.5 0 0 1 5,7.5 Z m 0,-4 A 0.5,0.5 0 0 1 5.5,3 h 9 a 0.5,0.5 0 0 1 0,1 h -9 A 0.5,0.5 0 0 1 5,3.5 Z M 3.854,2.146 a 0.5,0.5 0 0 1 0,0.708 l -1.5,1.5 a 0.5,0.5 0 0 1 -0.708,0 l -0.5,-0.5 A 0.5006316,0.5006316 0 1 1 1.854,3.146 L 2,3.293 3.146,2.146 a 0.5,0.5 0 0 1 0.708,0 z m 0,4 a 0.5,0.5 0 0 1 0,0.708 l -1.5,1.5 a 0.5,0.5 0 0 1 -0.708,0 l -0.5,-0.5 A 0.5006316,0.5006316 0 1 1 1.854,7.146 L 2,7.293 3.146,6.146 a 0.5,0.5 0 0 1 0.708,0 z m 0,4 a 0.5,0.5 0 0 1 0,0.708 l -1.5,1.5 a 0.5,0.5 0 0 1 -0.708,0 l -0.5,-0.5 A 0.5006316,0.5006316 0 0 1 1.854,11.146 L 2,11.293 3.146,10.146 a 0.5,0.5 0 0 1 0.708,0 z"
     id="path298" />
</svg>
